<?xml version="1.0" encoding="UTF-8" standalone="no"?><svg xmlns="http://www.w3.org/2000/svg" xmlns:xlink="http://www.w3.org/1999/xlink" contentStyleType="text/css" height="465px" preserveAspectRatio="none" style="width:937px;height:465px;background:#FFFFFF;" version="1.1" viewBox="0 0 937 465" width="937px" zoomAndPan="magnify"><defs/><g><rect fill="#F1F1F1" height="39.0679" rx="12.5" ry="12.5" style="stroke:#181818;stroke-width:1.5;" width="144" x="10" y="211.9707"/><text fill="#000000" font-family="sans-serif" font-size="14" lengthAdjust="spacing" textLength="124" x="20" y="236.9367">Organisation cible</text><rect fill="#F1F1F1" height="39.0679" rx="12.5" ry="12.5" style="stroke:#181818;stroke-width:1.5;" width="199" x="204" y="93.8349"/><text fill="#000000" font-family="sans-serif" font-size="14" lengthAdjust="spacing" textLength="179" x="214" y="118.8008">Organisation à but lucratif</text><rect fill="#52B788" height="39.0679" rx="12.5" ry="12.5" style="stroke:#181818;stroke-width:1.5;" width="139" x="453" y="49.534"/><text fill="#000000" font-family="sans-serif" font-size="14" lengthAdjust="spacing" textLength="115" x="463" y="74.4999">Entreprises privé</text><rect fill="#F1F1F1" height="39.0679" rx="12.5" ry="12.5" style="stroke:#181818;stroke-width:1.5;" width="101" x="642" y="20"/><text fill="#000000" font-family="sans-serif" font-size="14" lengthAdjust="spacing" textLength="81" x="652" y="44.9659">Call Centers</text><path d="M592,69.0679 L602,69.0679 C617,69.0679 617,39.534 632,39.534 L642,39.534 " fill="none" style="stroke:#181818;stroke-width:1.0;"/><rect fill="#52B788" height="39.0679" rx="12.5" ry="12.5" style="stroke:#181818;stroke-width:1.5;" width="283" x="642" y="79.0679"/><text fill="#000000" font-family="sans-serif" font-size="14" lengthAdjust="spacing" textLength="259" x="652" y="104.0339">Boites de développement et secteur IT</text><path d="M592,69.0679 L602,69.0679 C617,69.0679 617,98.6019 632,98.6019 L642,98.6019 " fill="none" style="stroke:#181818;stroke-width:1.0;"/><path d="M403,113.3689 L413,113.3689 C428,113.3689 428,69.0679 443,69.0679 L453,69.0679 " fill="none" style="stroke:#181818;stroke-width:1.0;"/><rect fill="#F1F1F1" height="39.0679" rx="12.5" ry="12.5" style="stroke:#181818;stroke-width:1.5;" width="143" x="453" y="108.6019"/><text fill="#000000" font-family="sans-serif" font-size="14" lengthAdjust="spacing" textLength="123" x="463" y="133.5678">Entreprises public</text><path d="M403,113.3689 L413,113.3689 C428,113.3689 428,128.1358 443,128.1358 L453,128.1358 " fill="none" style="stroke:#181818;stroke-width:1.0;"/><rect fill="#F1F1F1" height="39.0679" rx="12.5" ry="12.5" style="stroke:#181818;stroke-width:1.5;" width="77" x="453" y="167.6698"/><text fill="#000000" font-family="sans-serif" font-size="14" lengthAdjust="spacing" textLength="57" x="463" y="192.6357">Startups</text><path d="M403,113.3689 L413,113.3689 C428,113.3689 428,187.2038 443,187.2038 L453,187.2038 " fill="none" style="stroke:#181818;stroke-width:1.0;"/><path d="M154,231.5047 L164,231.5047 C179,231.5047 179,113.3689 194,113.3689 L204,113.3689 " fill="none" style="stroke:#181818;stroke-width:1.0;"/><rect fill="#F1F1F1" height="39.0679" rx="12.5" ry="12.5" style="stroke:#181818;stroke-width:1.5;" width="229" x="204" y="315.3396"/><text fill="#000000" font-family="sans-serif" font-size="14" lengthAdjust="spacing" textLength="209" x="214" y="340.3055">Organisation à but non lucratif</text><rect fill="#52B788" height="39.0679" rx="12.5" ry="12.5" style="stroke:#181818;stroke-width:1.5;" width="56" x="483" y="256.2717"/><text fill="#000000" font-family="sans-serif" font-size="14" lengthAdjust="spacing" textLength="32" x="493" y="281.2376">NGO</text><rect fill="#52B788" height="39.0679" rx="12.5" ry="12.5" style="stroke:#181818;stroke-width:1.5;" width="70" x="589" y="226.7377"/><text fill="#000000" font-family="sans-serif" font-size="14" lengthAdjust="spacing" textLength="46" x="599" y="251.7036">BINGO</text><path d="M539,275.8056 L549,275.8056 C564,275.8056 564,246.2717 579,246.2717 L589,246.2717 " fill="none" style="stroke:#181818;stroke-width:1.0;"/><rect fill="#F1F1F1" height="39.0679" rx="12.5" ry="12.5" style="stroke:#181818;stroke-width:1.5;" width="60" x="589" y="285.8056"/><text fill="#000000" font-family="sans-serif" font-size="14" lengthAdjust="spacing" textLength="40" x="599" y="310.7716">ENGO</text><path d="M539,275.8056 L549,275.8056 C564,275.8056 564,305.3396 579,305.3396 L589,305.3396 " fill="none" style="stroke:#181818;stroke-width:1.0;"/><path d="M433,334.8735 L443,334.8735 C458,334.8735 458,275.8056 473,275.8056 L483,275.8056 " fill="none" style="stroke:#181818;stroke-width:1.0;"/><rect fill="#F1F1F1" height="39.0679" rx="12.5" ry="12.5" style="stroke:#181818;stroke-width:1.5;" width="103" x="483" y="344.8735"/><text fill="#000000" font-family="sans-serif" font-size="14" lengthAdjust="spacing" textLength="83" x="493" y="369.8395">Associations</text><path d="M433,334.8735 L443,334.8735 C458,334.8735 458,364.4075 473,364.4075 L483,364.4075 " fill="none" style="stroke:#181818;stroke-width:1.0;"/><rect fill="#F1F1F1" height="39.0679" rx="12.5" ry="12.5" style="stroke:#181818;stroke-width:1.5;" width="99" x="483" y="403.9415"/><text fill="#000000" font-family="sans-serif" font-size="14" lengthAdjust="spacing" textLength="79" x="493" y="428.9074">Fédérations</text><path d="M433,334.8735 L443,334.8735 C458,334.8735 458,423.4754 473,423.4754 L483,423.4754 " fill="none" style="stroke:#181818;stroke-width:1.0;"/><path d="M154,231.5047 L164,231.5047 C179,231.5047 179,334.8735 194,334.8735 L204,334.8735 " fill="none" style="stroke:#181818;stroke-width:1.0;"/><!--MD5=[836ee5ca0d839ed7ce95718fb66b533b]
@startmindmap
<style>
  .green {
    BackgroundColor #52b788
}
</style>

* Organisation cible
** Organisation à but lucratif
*** Entreprises privé <<green>>
**** Call Centers
**** Boites de développement et secteur IT <<green>>
*** Entreprises public
*** Startups
** Organisation à but non lucratif
*** NGO <<green>>
**** BINGO <<green>>
**** ENGO
*** Associations
*** Fédérations
@endmindmap

PlantUML version 1.2022.7(Mon Aug 22 18:01:30 CET 2022)
(GPL source distribution)
Java Runtime: OpenJDK Runtime Environment
JVM: OpenJDK 64-Bit Server VM
Default Encoding: UTF-8
Language: en
Country: US
--></g></svg>