<?xml version="1.0" encoding="UTF-8" standalone="no"?><svg xmlns="http://www.w3.org/2000/svg" xmlns:xlink="http://www.w3.org/1999/xlink" contentStyleType="text/css" height="258px" preserveAspectRatio="none" style="width:1434px;height:258px;background:#FFFFFF;" version="1.1" viewBox="0 0 1434 258" width="1434px" zoomAndPan="magnify"><defs/><g><rect fill="#F1F1F1" height="39.0679" rx="12.5" ry="12.5" style="stroke:#181818;stroke-width:1.5;" width="144" x="515" y="108.6019"/><text fill="#000000" font-family="sans-serif" font-size="14" lengthAdjust="spacing" textLength="124" x="525" y="133.5678">Organisation cible</text><rect fill="#F1F1F1" height="39.0679" rx="12.5" ry="12.5" style="stroke:#181818;stroke-width:1.5;" width="199" x="709" y="108.6019"/><text fill="#000000" font-family="sans-serif" font-size="14" lengthAdjust="spacing" textLength="179" x="719" y="133.5678">Organisation à but lucratif</text><rect fill="#52B788" height="39.0679" rx="12.5" ry="12.5" style="stroke:#181818;stroke-width:1.5;" width="139" x="958" y="64.3009"/><text fill="#000000" font-family="sans-serif" font-size="14" lengthAdjust="spacing" textLength="115" x="968" y="89.2669">Entreprises privé</text><rect fill="#F1F1F1" height="39.0679" rx="12.5" ry="12.5" style="stroke:#181818;stroke-width:1.5;" width="101" x="1147" y="34.767"/><text fill="#000000" font-family="sans-serif" font-size="14" lengthAdjust="spacing" textLength="81" x="1157" y="59.7329">Call Centers</text><path d="M1097,83.8349 L1107,83.8349 C1122,83.8349 1122,54.3009 1137,54.3009 L1147,54.3009 " fill="none" style="stroke:#181818;stroke-width:1.0;"/><rect fill="#52B788" height="39.0679" rx="12.5" ry="12.5" style="stroke:#181818;stroke-width:1.5;" width="275" x="1147" y="93.8349"/><text fill="#000000" font-family="sans-serif" font-size="14" lengthAdjust="spacing" textLength="251" x="1157" y="118.8008">Boites de devloppement et secteur IT</text><path d="M1097,83.8349 L1107,83.8349 C1122,83.8349 1122,113.3689 1137,113.3689 L1147,113.3689 " fill="none" style="stroke:#181818;stroke-width:1.0;"/><path d="M908,128.1358 L918,128.1358 C933,128.1358 933,83.8349 948,83.8349 L958,83.8349 " fill="none" style="stroke:#181818;stroke-width:1.0;"/><rect fill="#F1F1F1" height="39.0679" rx="12.5" ry="12.5" style="stroke:#181818;stroke-width:1.5;" width="143" x="958" y="123.3689"/><text fill="#000000" font-family="sans-serif" font-size="14" lengthAdjust="spacing" textLength="123" x="968" y="148.3348">Entreprises public</text><path d="M908,128.1358 L918,128.1358 C933,128.1358 933,142.9028 948,142.9028 L958,142.9028 " fill="none" style="stroke:#181818;stroke-width:1.0;"/><rect fill="#F1F1F1" height="39.0679" rx="12.5" ry="12.5" style="stroke:#181818;stroke-width:1.5;" width="77" x="958" y="182.4368"/><text fill="#000000" font-family="sans-serif" font-size="14" lengthAdjust="spacing" textLength="57" x="968" y="207.4027">Startups</text><path d="M908,128.1358 L918,128.1358 C933,128.1358 933,201.9707 948,201.9707 L958,201.9707 " fill="none" style="stroke:#181818;stroke-width:1.0;"/><path d="M659,128.1358 L669,128.1358 C684,128.1358 684,128.1358 699,128.1358 L709,128.1358 " fill="none" style="stroke:#181818;stroke-width:1.0;"/><rect fill="#F1F1F1" height="39.0679" rx="12.5" ry="12.5" style="stroke:#181818;stroke-width:1.5;" width="229" x="236" y="108.6019"/><text fill="#000000" font-family="sans-serif" font-size="14" lengthAdjust="spacing" textLength="209" x="246" y="133.5678">Organisation à but non lucratif</text><rect fill="#52B788" height="39.0679" rx="12.5" ry="12.5" style="stroke:#181818;stroke-width:1.5;" width="56" x="130" y="49.534"/><text fill="#000000" font-family="sans-serif" font-size="14" lengthAdjust="spacing" textLength="32" x="140" y="74.4999">NGO</text><rect fill="#52B788" height="39.0679" rx="12.5" ry="12.5" style="stroke:#181818;stroke-width:1.5;" width="70" x="10" y="20"/><text fill="#000000" font-family="sans-serif" font-size="14" lengthAdjust="spacing" textLength="46" x="20" y="44.9659">BINGO</text><path d="M130,69.0679 L120,69.0679 C105,69.0679 105,39.534 90,39.534 L80,39.534 " fill="none" style="stroke:#181818;stroke-width:1.0;"/><rect fill="#F1F1F1" height="39.0679" rx="12.5" ry="12.5" style="stroke:#181818;stroke-width:1.5;" width="60" x="20" y="79.0679"/><text fill="#000000" font-family="sans-serif" font-size="14" lengthAdjust="spacing" textLength="40" x="30" y="104.0339">ENGO</text><path d="M130,69.0679 L120,69.0679 C105,69.0679 105,98.6019 90,98.6019 L80,98.6019 " fill="none" style="stroke:#181818;stroke-width:1.0;"/><path d="M236,128.1358 L226,128.1358 C211,128.1358 211,69.0679 196,69.0679 L186,69.0679 " fill="none" style="stroke:#181818;stroke-width:1.0;"/><rect fill="#F1F1F1" height="39.0679" rx="12.5" ry="12.5" style="stroke:#181818;stroke-width:1.5;" width="103" x="83" y="138.1358"/><text fill="#000000" font-family="sans-serif" font-size="14" lengthAdjust="spacing" textLength="83" x="93" y="163.1018">Associations</text><path d="M236,128.1358 L226,128.1358 C211,128.1358 211,157.6698 196,157.6698 L186,157.6698 " fill="none" style="stroke:#181818;stroke-width:1.0;"/><rect fill="#F1F1F1" height="39.0679" rx="12.5" ry="12.5" style="stroke:#181818;stroke-width:1.5;" width="99" x="87" y="197.2038"/><text fill="#000000" font-family="sans-serif" font-size="14" lengthAdjust="spacing" textLength="79" x="97" y="222.1697">Fédérations</text><path d="M236,128.1358 L226,128.1358 C211,128.1358 211,216.7377 196,216.7377 L186,216.7377 " fill="none" style="stroke:#181818;stroke-width:1.0;"/><path d="M515,128.1358 L505,128.1358 C490,128.1358 490,128.1358 475,128.1358 L465,128.1358 " fill="none" style="stroke:#181818;stroke-width:1.0;"/><!--MD5=[8db37cd28bb024ecdeb55bb5a171fe30]
@startmindmap
<style>
  .green {
    BackgroundColor #52b788
}
</style>

* Organisation cible
** Organisation à but lucratif
*** Entreprises privé <<green>>
**** Call Centers
**** Boites de devloppement et secteur IT <<green>>
*** Entreprises public
*** Startups
left side
** Organisation à but non lucratif
*** NGO <<green>>
**** BINGO <<green>>
**** ENGO
*** Associations
*** Fédérations
@endmindmap

PlantUML version 1.2022.7(Mon Aug 22 18:01:30 CET 2022)
(GPL source distribution)
Java Runtime: OpenJDK Runtime Environment
JVM: OpenJDK 64-Bit Server VM
Default Encoding: UTF-8
Language: en
Country: US
--></g></svg>