<?xml version="1.0" encoding="UTF-8" standalone="no"?><svg xmlns="http://www.w3.org/2000/svg" xmlns:xlink="http://www.w3.org/1999/xlink" contentStyleType="text/css" height="258px" preserveAspectRatio="none" style="width:1417px;height:258px;background:#FFFFFF;" version="1.1" viewBox="0 0 1417 258" width="1417px" zoomAndPan="magnify"><defs/><g><text fill="#000000" font-family="sans-serif" font-size="14" lengthAdjust="spacing" textLength="124" x="518" y="133.5678">Organisation cible</text><rect fill="#F1F1F1" height="39.0679" rx="12.5" ry="12.5" style="stroke:#181818;stroke-width:1.5;" width="199" x="692" y="108.6019"/><text fill="#000000" font-family="sans-serif" font-size="14" lengthAdjust="spacing" textLength="179" x="702" y="133.5678">Organisation à but lucratif</text><rect fill="#52B788" height="39.0679" rx="12.5" ry="12.5" style="stroke:#181818;stroke-width:1.5;" width="139" x="941" y="64.3009"/><text fill="#000000" font-family="sans-serif" font-size="14" lengthAdjust="spacing" textLength="115" x="951" y="89.2669">Entreprises privé</text><rect fill="#F1F1F1" height="39.0679" rx="12.5" ry="12.5" style="stroke:#181818;stroke-width:1.5;" width="101" x="1130" y="34.767"/><text fill="#000000" font-family="sans-serif" font-size="14" lengthAdjust="spacing" textLength="81" x="1140" y="59.7329">Call Centers</text><path d="M1080,83.8349 L1090,83.8349 C1105,83.8349 1105,54.3009 1120,54.3009 L1130,54.3009 " fill="none" style="stroke:#181818;stroke-width:1.0;"/><rect fill="#52B788" height="39.0679" rx="12.5" ry="12.5" style="stroke:#181818;stroke-width:1.5;" width="275" x="1130" y="93.8349"/><text fill="#000000" font-family="sans-serif" font-size="14" lengthAdjust="spacing" textLength="251" x="1140" y="118.8008">Boites de devloppement et secteur IT</text><path d="M1080,83.8349 L1090,83.8349 C1105,83.8349 1105,113.3689 1120,113.3689 L1130,113.3689 " fill="none" style="stroke:#181818;stroke-width:1.0;"/><path d="M891,128.1358 L901,128.1358 C916,128.1358 916,83.8349 931,83.8349 L941,83.8349 " fill="none" style="stroke:#181818;stroke-width:1.0;"/><rect fill="#F1F1F1" height="39.0679" rx="12.5" ry="12.5" style="stroke:#181818;stroke-width:1.5;" width="143" x="941" y="123.3689"/><text fill="#000000" font-family="sans-serif" font-size="14" lengthAdjust="spacing" textLength="123" x="951" y="148.3348">Entreprises public</text><path d="M891,128.1358 L901,128.1358 C916,128.1358 916,142.9028 931,142.9028 L941,142.9028 " fill="none" style="stroke:#181818;stroke-width:1.0;"/><rect fill="#F1F1F1" height="39.0679" rx="12.5" ry="12.5" style="stroke:#181818;stroke-width:1.5;" width="77" x="941" y="182.4368"/><text fill="#000000" font-family="sans-serif" font-size="14" lengthAdjust="spacing" textLength="57" x="951" y="207.4027">Startups</text><path d="M891,128.1358 L901,128.1358 C916,128.1358 916,201.9707 931,201.9707 L941,201.9707 " fill="none" style="stroke:#181818;stroke-width:1.0;"/><path d="M642,128.1358 L652,128.1358 C667,128.1358 667,128.1358 682,128.1358 L692,128.1358 " fill="none" style="stroke:#181818;stroke-width:1.0;"/><rect fill="#F1F1F1" height="39.0679" rx="12.5" ry="12.5" style="stroke:#181818;stroke-width:1.5;" width="229" x="236" y="108.6019"/><text fill="#000000" font-family="sans-serif" font-size="14" lengthAdjust="spacing" textLength="209" x="246" y="133.5678">Organisation à but non lucratif</text><rect fill="#52B788" height="39.0679" rx="12.5" ry="12.5" style="stroke:#181818;stroke-width:1.5;" width="56" x="130" y="49.534"/><text fill="#000000" font-family="sans-serif" font-size="14" lengthAdjust="spacing" textLength="32" x="140" y="74.4999">NGO</text><rect fill="#52B788" height="39.0679" rx="12.5" ry="12.5" style="stroke:#181818;stroke-width:1.5;" width="70" x="10" y="20"/><text fill="#000000" font-family="sans-serif" font-size="14" lengthAdjust="spacing" textLength="46" x="20" y="44.9659">BINGO</text><path d="M130,69.0679 L120,69.0679 C105,69.0679 105,39.534 90,39.534 L80,39.534 " fill="none" style="stroke:#181818;stroke-width:1.0;"/><rect fill="#F1F1F1" height="39.0679" rx="12.5" ry="12.5" style="stroke:#181818;stroke-width:1.5;" width="60" x="20" y="79.0679"/><text fill="#000000" font-family="sans-serif" font-size="14" lengthAdjust="spacing" textLength="40" x="30" y="104.0339">ENGO</text><path d="M130,69.0679 L120,69.0679 C105,69.0679 105,98.6019 90,98.6019 L80,98.6019 " fill="none" style="stroke:#181818;stroke-width:1.0;"/><path d="M236,128.1358 L226,128.1358 C211,128.1358 211,69.0679 196,69.0679 L186,69.0679 " fill="none" style="stroke:#181818;stroke-width:1.0;"/><rect fill="#F1F1F1" height="39.0679" rx="12.5" ry="12.5" style="stroke:#181818;stroke-width:1.5;" width="103" x="83" y="138.1358"/><text fill="#000000" font-family="sans-serif" font-size="14" lengthAdjust="spacing" textLength="83" x="93" y="163.1018">Associations</text><path d="M236,128.1358 L226,128.1358 C211,128.1358 211,157.6698 196,157.6698 L186,157.6698 " fill="none" style="stroke:#181818;stroke-width:1.0;"/><rect fill="#F1F1F1" height="39.0679" rx="12.5" ry="12.5" style="stroke:#181818;stroke-width:1.5;" width="99" x="87" y="197.2038"/><text fill="#000000" font-family="sans-serif" font-size="14" lengthAdjust="spacing" textLength="79" x="97" y="222.1697">Fédérations</text><path d="M236,128.1358 L226,128.1358 C211,128.1358 211,216.7377 196,216.7377 L186,216.7377 " fill="none" style="stroke:#181818;stroke-width:1.0;"/><path d="M515,128.1358 L505,128.1358 C490,128.1358 490,128.1358 475,128.1358 L465,128.1358 " fill="none" style="stroke:#181818;stroke-width:1.0;"/><!--MD5=[65abd3a6250bf0afa3d09a55bacb70ab]
@startmindmap
<style>
  .green {
    BackgroundColor #52b788
}
</style>

*_ Organisation cible
** Organisation à but lucratif
*** Entreprises privé <<green>>
**** Call Centers
**** Boites de devloppement et secteur IT <<green>>
*** Entreprises public
*** Startups
left side
** Organisation à but non lucratif
*** NGO <<green>>
**** BINGO <<green>>
**** ENGO
*** Associations
*** Fédérations
@endmindmap

PlantUML version 1.2022.7(Mon Aug 22 18:01:30 CET 2022)
(GPL source distribution)
Java Runtime: OpenJDK Runtime Environment
JVM: OpenJDK 64-Bit Server VM
Default Encoding: UTF-8
Language: en
Country: US
--></g></svg>