<?xml version="1.0" encoding="UTF-8" standalone="no"?><svg xmlns="http://www.w3.org/2000/svg" xmlns:xlink="http://www.w3.org/1999/xlink" contentStyleType="text/css" height="228px" preserveAspectRatio="none" style="width:743px;height:228px;background:#FFFFFF;" version="1.1" viewBox="0 0 743 228" width="743px" zoomAndPan="magnify"><defs/><g><rect fill="#F1F1F1" height="39.0679" rx="12.5" ry="12.5" style="stroke:#181818;stroke-width:1.5;" width="199" x="10" y="93.8349"/><text fill="#000000" font-family="sans-serif" font-size="14" lengthAdjust="spacing" textLength="179" x="20" y="118.8008">Organisation à but lucratif</text><rect fill="#52B788" height="39.0679" rx="12.5" ry="12.5" style="stroke:#181818;stroke-width:1.5;" width="139" x="259" y="49.534"/><text fill="#000000" font-family="sans-serif" font-size="14" lengthAdjust="spacing" textLength="115" x="269" y="74.4999">Entreprises privé</text><rect fill="#F1F1F1" height="39.0679" rx="12.5" ry="12.5" style="stroke:#181818;stroke-width:1.5;" width="101" x="448" y="20"/><text fill="#000000" font-family="sans-serif" font-size="14" lengthAdjust="spacing" textLength="81" x="458" y="44.9659">Call Centers</text><path d="M398,69.0679 L408,69.0679 C423,69.0679 423,39.534 438,39.534 L448,39.534 " fill="none" style="stroke:#181818;stroke-width:1.0;"/><rect fill="#52B788" height="39.0679" rx="12.5" ry="12.5" style="stroke:#181818;stroke-width:1.5;" width="283" x="448" y="79.0679"/><text fill="#000000" font-family="sans-serif" font-size="14" lengthAdjust="spacing" textLength="259" x="458" y="104.0339">Boites de développement et secteur IT</text><path d="M398,69.0679 L408,69.0679 C423,69.0679 423,98.6019 438,98.6019 L448,98.6019 " fill="none" style="stroke:#181818;stroke-width:1.0;"/><path d="M209,113.3689 L219,113.3689 C234,113.3689 234,69.0679 249,69.0679 L259,69.0679 " fill="none" style="stroke:#181818;stroke-width:1.0;"/><rect fill="#F1F1F1" height="39.0679" rx="12.5" ry="12.5" style="stroke:#181818;stroke-width:1.5;" width="143" x="259" y="108.6019"/><text fill="#000000" font-family="sans-serif" font-size="14" lengthAdjust="spacing" textLength="123" x="269" y="133.5678">Entreprises public</text><path d="M209,113.3689 L219,113.3689 C234,113.3689 234,128.1358 249,128.1358 L259,128.1358 " fill="none" style="stroke:#181818;stroke-width:1.0;"/><rect fill="#F1F1F1" height="39.0679" rx="12.5" ry="12.5" style="stroke:#181818;stroke-width:1.5;" width="77" x="259" y="167.6698"/><text fill="#000000" font-family="sans-serif" font-size="14" lengthAdjust="spacing" textLength="57" x="269" y="192.6357">Startups</text><path d="M209,113.3689 L219,113.3689 C234,113.3689 234,187.2038 249,187.2038 L259,187.2038 " fill="none" style="stroke:#181818;stroke-width:1.0;"/><!--MD5=[b812f62f3b1c569847f4cd6677031c05]
@startmindmap
<style>
  .green {
    BackgroundColor #52b788
}
</style>

* Organisation à but lucratif
** Entreprises privé <<green>>
*** Call Centers
*** Boites de développement et secteur IT <<green>>
** Entreprises public
** Startups
@endmindmap

PlantUML version 1.2022.7(Mon Aug 22 18:01:30 CET 2022)
(GPL source distribution)
Java Runtime: OpenJDK Runtime Environment
JVM: OpenJDK 64-Bit Server VM
Default Encoding: UTF-8
Language: en
Country: US
--></g></svg>